<svg id="SvgjsSvg1001" width="288" height="288" xmlns="http://www.w3.org/2000/svg" version="1.1" xmlns:xlink="http://www.w3.org/1999/xlink" xmlns:svgjs="http://svgjs.com/svgjs"><defs id="SvgjsDefs1002"></defs><g id="SvgjsG1008" transform="matrix(1,0,0,1,0,0)"><svg xmlns="http://www.w3.org/2000/svg" width="288" height="288" viewBox="0 0 1334 1024"><path d="M210.465 328.683c0.955-2.654 2.582-4.953 4.811-6.933 4.21-4.21 9.269-6.297 15.141-6.297s10.931 2.087 15.141 6.297l372.337 371.948 371.948-371.948c4.21-4.21 9.304-6.297 15.354-6.297 6.014 0 11.108 2.087 15.318 6.297s6.297 9.234 6.297 15.141c0 5.872-2.087 10.931-6.297 15.106l-387.479 387.514c-4.21 4.21-9.269 6.297-15.141 6.297s-10.931-2.087-15.141-6.297l-387.479-387.514c-2.228-1.945-3.856-4.246-4.811-6.933-0.99-2.654-1.485-5.377-1.485-8.173s0.495-5.519 1.485-8.208z" fill="#ffffff" class="color000 svgShape"></path></svg></g></svg>